<svg width="200" height="60" viewBox="0 0 200 60" fill="none" xmlns="http://www.w3.org/2000/svg">
  <rect width="200" height="60" rx="8" fill="#1E40AF"/>
  <path d="M24.92 42.76C22.12 42.76 19.88 42.08 18.2 40.72C16.52 39.36 15.68 37.44 15.68 35C15.68 32.56 16.52 30.64 18.2 29.28C19.88 27.92 22.12 27.24 24.92 27.24C27.72 27.24 29.96 27.92 31.64 29.28C33.32 30.64 34.16 32.56 34.16 35C34.16 37.44 33.32 39.36 31.64 40.72C29.96 42.08 27.72 42.76 24.92 42.76ZM24.92 39.44C26.44 39.44 27.6 39.08 28.4 38.36C29.2 37.64 29.6 36.52 29.6 35C29.6 33.48 29.2 32.36 28.4 31.64C27.6 30.92 26.44 30.56 24.92 30.56C23.4 30.56 22.24 30.92 21.44 31.64C20.64 32.36 20.24 33.48 20.24 35C20.24 36.52 20.64 37.64 21.44 38.36C22.24 39.08 23.4 39.44 24.92 39.44Z" fill="white"/>
  <path d="M53.12 32.48C53.12 33.04 53.1 33.48 53.06 33.8C53.02 34.12 52.98 34.4 52.94 34.64L45.7 42.4H53.12V46H39.14V43C39.14 42.44 39.16 42 39.2 41.68C39.24 41.36 39.28 41.08 39.32 40.84L46.54 33.08H39.52V29.48H53.12V32.48Z" fill="white"/>
  <path d="M80.72 31.28C78.96 30.32 77.12 29.84 75.2 29.84C73.44 29.84 72.08 30.26 71.12 31.1C70.16 31.94 69.68 33.08 69.68 34.52C69.68 35.96 70.16 37.1 71.12 37.94C72.08 38.78 73.44 39.2 75.2 39.2C77.12 39.2 78.96 38.72 80.72 37.76V41.92C79.84 42.32 78.94 42.62 78.02 42.82C77.1 43.02 76.12 43.12 75.08 43.12C72.24 43.12 69.96 42.38 68.24 40.9C66.52 39.42 65.66 37.28 65.66 34.52C65.66 31.76 66.52 29.62 68.24 28.14C69.96 26.66 72.24 25.92 75.08 25.92C76.12 25.92 77.1 26.02 78.02 26.22C78.94 26.42 79.84 26.72 80.72 27.12V31.28Z" fill="white"/>
  <text x="100" y="39" font-family="Arial" font-size="16" fill="white">Wound Care</text>
</svg> 